<mxfile host="app.diagrams.net">
  <diagram name="TradeRsqlVisitor-visitAndNode-Detailed">
    <mxGraphModel dx="1000" dy="1000" grid="1" gridSize="10" guides="1" tooltips="1" connect="1" arrows="1" fold="1" page="1" pageScale="1" pageWidth="827" pageHeight="1169" math="0" shadow="0">
      <root>
        <mxCell id="0" />
        <mxCell id="1" parent="0" />
        <mxCell id="2" value="Start visit(AndNode)" style="ellipse;whiteSpace=wrap;html=1;" vertex="1" parent="1">
          <mxGeometry x="80" y="40" width="180" height="60" as="geometry" />
        </mxCell>
        <mxCell id="3" value="Initialise empty childSpecs list" style="rounded=1;whiteSpace=wrap;html=1;" vertex="1" parent="1">
          <mxGeometry x="80" y="120" width="220" height="60" as="geometry" />
        </mxCell>
        <mxCell id="4" value="Get children from AndNode" style="rounded=1;whiteSpace=wrap;html=1;" vertex="1" parent="1">
          <mxGeometry x="80" y="200" width="220" height="60" as="geometry" />
        </mxCell>
        <mxCell id="5" value="For each child in children" style="rhombus;whiteSpace=wrap;html=1;" vertex="1" parent="1">
          <mxGeometry x="80" y="280" width="180" height="60" as="geometry" />
        </mxCell>
        <mxCell id="6" value="Call child.accept(this)\n(recursive visit)" style="rounded=1;whiteSpace=wrap;html=1;" vertex="1" parent="1">
          <mxGeometry x="80" y="360" width="220" height="60" as="geometry" />
        </mxCell>
        <mxCell id="7" value="childSpec != null?" style="rhombus;whiteSpace=wrap;html=1;" vertex="1" parent="1">
          <mxGeometry x="80" y="440" width="120" height="60" as="geometry" />
        </mxCell>
        <mxCell id="8" value="Add childSpec to childSpecs" style="rounded=1;whiteSpace=wrap;html=1;" vertex="1" parent="1">
          <mxGeometry x="240" y="440" width="180" height="60" as="geometry" />
        </mxCell>
        <mxCell id="9" value="End For" style="ellipse;whiteSpace=wrap;html=1;" vertex="1" parent="1">
          <mxGeometry x="80" y="520" width="100" height="40" as="geometry" />
        </mxCell>
        <mxCell id="10" value="Initialise result = null" style="rounded=1;whiteSpace=wrap;html=1;" vertex="1" parent="1">
          <mxGeometry x="80" y="580" width="180" height="60" as="geometry" />
        </mxCell>
        <mxCell id="11" value="For each spec in childSpecs" style="rhombus;whiteSpace=wrap;html=1;" vertex="1" parent="1">
          <mxGeometry x="80" y="660" width="180" height="60" as="geometry" />
        </mxCell>
        <mxCell id="12" value="result == null?" style="rhombus;whiteSpace=wrap;html=1;" vertex="1" parent="1">
          <mxGeometry x="80" y="740" width="120" height="60" as="geometry" />
        </mxCell>
        <mxCell id="13" value="Set result = spec" style="rounded=1;whiteSpace=wrap;html=1;" vertex="1" parent="1">
          <mxGeometry x="240" y="740" width="140" height="60" as="geometry" />
        </mxCell>
        <mxCell id="14" value="Set result = result.and(spec)" style="rounded=1;whiteSpace=wrap;html=1;" vertex="1" parent="1">
          <mxGeometry x="80" y="820" width="220" height="60" as="geometry" />
        </mxCell>
        <mxCell id="15" value="End For" style="ellipse;whiteSpace=wrap;html=1;" vertex="1" parent="1">
          <mxGeometry x="80" y="900" width="100" height="40" as="geometry" />
        </mxCell>
        <mxCell id="16" value="Return result" style="ellipse;whiteSpace=wrap;html=1;" vertex="1" parent="1">
          <mxGeometry x="80" y="960" width="120" height="60" as="geometry" />
        </mxCell>
        <!-- Edges -->
        <mxCell id="17" style="edgeStyle=orthogonalEdgeStyle;rounded=0;" edge="1" parent="1" source="2" target="3"><mxGeometry relative="1" as="geometry" /></mxCell>
        <mxCell id="18" style="edgeStyle=orthogonalEdgeStyle;rounded=0;" edge="1" parent="1" source="3" target="4"><mxGeometry relative="1" as="geometry" /></mxCell>
        <mxCell id="19" style="edgeStyle=orthogonalEdgeStyle;rounded=0;" edge="1" parent="1" source="4" target="5"><mxGeometry relative="1" as="geometry" /></mxCell>
        <mxCell id="20" style="edgeStyle=orthogonalEdgeStyle;rounded=0;" edge="1" parent="1" source="5" target="6"><mxGeometry relative="1" as="geometry" /></mxCell>
        <mxCell id="21" style="edgeStyle=orthogonalEdgeStyle;rounded=0;" edge="1" parent="1" source="6" target="7"><mxGeometry relative="1" as="geometry" /></mxCell>
        <mxCell id="22" style="edgeStyle=orthogonalEdgeStyle;rounded=0;" edge="1" parent="1" source="7" target="8"><mxGeometry relative="1" as="geometry" /></mxCell>
        <mxCell id="23" style="edgeStyle=orthogonalEdgeStyle;rounded=0;" edge="1" parent="1" source="7" target="9"><mxGeometry relative="1" as="geometry" /></mxCell>
        <mxCell id="24" style="edgeStyle=orthogonalEdgeStyle;rounded=0;" edge="1" parent="1" source="8" target="9"><mxGeometry relative="1" as="geometry" /></mxCell>
        <mxCell id="25" style="edgeStyle=orthogonalEdgeStyle;rounded=0;" edge="1" parent="1" source="9" target="10"><mxGeometry relative="1" as="geometry" /></mxCell>
        <mxCell id="26" style="edgeStyle=orthogonalEdgeStyle;rounded=0;" edge="1" parent="1" source="10" target="11"><mxGeometry relative="1" as="geometry" /></mxCell>
        <mxCell id="27" style="edgeStyle=orthogonalEdgeStyle;rounded=0;" edge="1" parent="1" source="11" target="12"><mxGeometry relative="1" as="geometry" /></mxCell>
        <mxCell id="28" style="edgeStyle=orthogonalEdgeStyle;rounded=0;" edge="1" parent="1" source="12" target="13"><mxGeometry relative="1" as="geometry" /></mxCell>
        <mxCell id="29" style="edgeStyle=orthogonalEdgeStyle;rounded=0;" edge="1" parent="1" source="12" target="14"><mxGeometry relative="1" as="geometry" /></mxCell>
        <mxCell id="30" style="edgeStyle=orthogonalEdgeStyle;rounded=0;" edge="1" parent="1" source="13" target="15"><mxGeometry relative="1" as="geometry" /></mxCell>
        <mxCell id="31" style="edgeStyle=orthogonalEdgeStyle;rounded=0;" edge="1" parent="1" source="14" target="15"><mxGeometry relative="1" as="geometry" /></mxCell>
        <mxCell id="32" style="edgeStyle=orthogonalEdgeStyle;rounded=0;" edge="1" parent="1" source="15" target="16"><mxGeometry relative="1" as="geometry" /></mxCell>
      </root>
    </mxGraphModel>
  </diagram>
</mxfile>
